<svg width="338" height="113" viewBox="0 0 338 113" fill="none" xmlns="http://www.w3.org/2000/svg">
<path d="M58.6858 29.572H47.2978V30.092H56.5018V31.132H52.4458V31.392H48.3898V32.172H45.7378V32.952H44.5938V33.732H39.1338V34.772H47.2978V35.812H43.1378V36.332H46.7778V36.852H48.9618V37.632H49.7418V38.412H50.4698V38.932H50.5218V39.972H51.6138V40.232H51.0418V40.492H49.7418V40.752H46.7258L46.5698 41.272H44.9578C44.8192 41.5147 44.6632 41.688 44.4898 41.792H46.4138C46.2405 41.9307 45.9978 42 45.6858 42H36.2738C35.9618 42 35.7192 41.9307 35.5458 41.792H33.5698C33.3965 41.688 33.2405 41.5147 33.1018 41.272H34.6618C34.5578 41.0987 34.5058 40.9253 34.5058 40.752H37.5218V40.492H38.8218V40.232H39.3938V39.972H38.3018V38.932H38.2498V38.412H37.5218V37.632H36.7418V36.852H34.5578V36.332H30.9178V35.812H35.0778V34.772H16.6698V35.812H24.1058V36.332H23.0138V37.632H23.2218V38.412H22.2338V38.932H21.8698V39.972H22.0258V40.232H25.8738V40.492H22.6498V40.752H24.5218C24.5218 40.9253 24.4698 41.0987 24.3658 41.272H21.5058C21.4018 41.5147 21.2285 41.688 20.9858 41.792H20.6738C20.5005 41.9307 20.2405 42 19.8938 42H10.4818C10.1698 42 9.92718 41.9307 9.75384 41.792H10.1178C10.0138 41.7227 9.90984 41.6533 9.80584 41.584C9.73651 41.48 9.66718 41.376 9.59784 41.272H12.5098C12.4058 41.0987 12.3538 40.9253 12.3538 40.752H10.4298V40.492H13.6538V40.232H9.80584V39.972H9.64984V38.932H10.0138V38.412H11.0018V37.632H10.7938V36.332H11.8858V35.812H4.44984V34.772H15.6818V33.732H5.43784V32.952H5.17784V32.172H9.44184V31.392H10.9498V31.132H7.62184V30.092H14.9018V29.572H19.9978L19.8418 29.312H10.5858V29.052H12.3018V28.792H11.0018V27.752H11.0538V27.232H12.2498V26.452H11.9898V25.412H10.5858V25.152H5.90584V24.632H9.96184V24.372H9.80584V23.852H12.0938V23.332H13.3418V22.552H5.12584V21.512H11.6778V20.992H5.85384V20.212H11.8858V19.692H11.1578V19.172H9.18184V18.912H10.1698V18.132H16.1498V17.352H15.2658V16.832H10.3258V16.572H10.0658V15.792H12.5098V14.752H7.10184V14.232H8.97384V13.972H9.49384V13.452H8.29784V12.672H12.9778V11.892H10.5858V10.852H14.5378V10.592H13.2898V9.552H17.9178V8.772H7.04984V7.992H18.5938V7.212H13.4978V6.692H9.59784C9.63251 6.51867 9.68451 6.38 9.75384 6.276C9.85784 6.13733 9.96184 6.016 10.0658 5.912H10.3258C10.5338 5.704 10.8285 5.6 11.2098 5.6H19.4258C19.9112 5.6 20.3098 5.704 20.6218 5.912H20.3618C20.5698 6.016 20.7432 6.13733 20.8818 6.276C21.0205 6.41467 21.1245 6.55333 21.1938 6.692H25.1458L25.3538 7.004L25.4578 7.212H30.6058L31.0738 7.992H19.5298L19.9978 8.772H30.8138L31.2818 9.552H26.7058L27.3298 10.592H28.5778L28.7338 10.852H24.7818L25.4058 11.892H27.7458L28.2138 12.672H23.5858L24.0538 13.452H25.2498L25.5618 13.972H25.0418L25.1978 14.232H23.3258L23.6378 14.752H29.0458L29.6698 15.792H27.2258L27.6938 16.572H27.9538L28.1098 16.832H31.9578L32.1138 16.572H30.7098L31.1778 15.792H32.8938L33.5178 14.752H32.5818L32.8938 14.232H28.6818L28.8378 13.972H34.0898L34.4018 13.452H33.9858L34.4538 12.672H37.5738L38.0418 11.892H38.1978L38.8218 10.852H36.4298L36.5858 10.592H42.0458L42.6698 9.552H42.3578L42.8258 8.772H34.8178L35.2858 7.992H42.9818L43.4498 7.212H37.7818L37.8858 7.004C37.9552 6.86533 38.0245 6.76133 38.0938 6.692H38.1978C38.3018 6.55333 38.4232 6.41467 38.5618 6.276C38.7005 6.13733 38.8565 6.016 39.0298 5.912H38.9258C39.2378 5.704 39.6365 5.6 40.1218 5.6H48.3378C48.6845 5.6 48.9792 5.704 49.2218 5.912H49.3778C49.4818 6.016 49.5685 6.13733 49.6378 6.276C49.7418 6.38 49.8112 6.51867 49.8458 6.692H49.7418V7.212H55.4618V7.992H47.7658V8.772H55.7738V9.552H56.0858V10.592H50.6258V10.852H53.0178V11.892H52.8618V12.672H49.7418V13.452H50.1578V13.972H44.9058V14.232H49.1178V14.752H50.0538V15.792H48.3898V16.572H49.7418V16.832H52.1858V17.352H46.8298V18.132H50.6778V18.912H49.7418V19.172H49.9498V19.692H50.6778V20.212H44.6458V20.992H50.4698V21.512H43.9178V22.552H52.1338V23.332H50.8858V23.852H48.5978V24.372H48.7538V24.632H44.6978V25.152H49.3778V25.412H50.7818V26.452H49.5858V27.232H48.7018V27.752H49.7418V28.792H50.2098V29.052H52.4458V29.312H58.6858V29.572ZM34.3498 16.832H33.0498L33.3618 17.352H34.0378L34.3498 16.832ZM28.2138 18.912L28.3698 19.172H30.3978L30.5538 19.484L30.7618 19.172H30.5538L30.7098 18.912H31.5938L32.0618 18.132H28.7858L29.2538 18.912H28.2138ZM35.9098 27.232H37.3658V26.452H36.3778L35.9098 27.232ZM23.2218 28.792H24.5218V29.052H22.8058V29.312H26.3418L26.1858 29.052H25.3538L25.1458 28.792H24.6778L24.0538 27.752H24.1578L23.8458 27.232H23.2738V27.752H23.2218V28.792ZM46.4658 29.572V29.312H40.2258V29.052H37.9898V28.792H37.5218V27.752H36.6898L36.0138 28.792H36.5338L36.3778 29.052H37.2098L37.0538 29.312H32.7898V29.572H27.1218V30.092H19.8418V31.132H23.1698V31.392H21.6618V32.172H17.3978V32.952H17.6578V33.732H32.3738V32.952H33.5178V32.172H29.1498C29.0458 32.3107 28.9418 32.4493 28.8378 32.588C28.7338 32.7267 28.5952 32.848 28.4218 32.952H28.2658C27.9538 33.16 27.6072 33.264 27.2258 33.264H23.5858C23.1698 33.264 22.8058 33.16 22.4938 32.952H22.6498C22.5112 32.848 22.3725 32.7267 22.2338 32.588C22.1298 32.4493 22.0258 32.3107 21.9218 32.172H27.2778L27.1218 31.964L26.7578 31.392H24.8858L24.7298 31.132H28.3698L27.6938 30.092H33.7778L33.4658 29.572H46.4658ZM44.2818 31.132V30.092H37.4698L36.8458 31.132H33.2578L33.1018 31.392H34.9738L34.6098 31.964L34.4538 32.172H36.1698V31.392H40.2258V31.132H44.2818ZM82.213 39.192V39.712H86.737V40.596C86.737 40.6653 86.7197 40.7173 86.685 40.752H84.241C84.1717 41.2373 83.9463 41.584 83.565 41.792H83.097C82.9237 41.9307 82.681 42 82.369 42H73.269C72.957 42 72.7143 41.9307 72.541 41.792H72.957C72.6103 41.5493 72.4023 41.2027 72.333 40.752H74.829V39.712H72.749C72.5757 39.8853 72.385 40.0587 72.177 40.232C72.0037 40.4053 71.813 40.5787 71.605 40.752H71.033C70.409 41.2027 69.785 41.5493 69.161 41.792H67.497C67.2543 41.896 66.977 41.9827 66.665 42.052C66.3877 42.156 66.093 42.2427 65.781 42.312H65.365C65.0183 42.3813 64.6543 42.4333 64.273 42.468C63.9263 42.5027 63.5623 42.52 63.181 42.52C62.765 42.52 62.349 42.5027 61.933 42.468C61.5517 42.4333 61.1703 42.3813 60.789 42.312H61.205C60.8583 42.2427 60.5117 42.156 60.165 42.052C59.853 41.9827 59.541 41.896 59.229 41.792H60.841C60.0783 41.5147 59.385 41.168 58.761 40.752H59.333C59.0903 40.5787 58.865 40.4053 58.657 40.232C58.449 40.0587 58.241 39.8853 58.033 39.712H55.433L54.965 39.192C54.9303 39.1227 54.8783 39.036 54.809 38.932C54.7397 38.828 54.6703 38.7413 54.601 38.672H56.161C56.0917 38.5333 56.005 38.412 55.901 38.308C55.8317 38.1693 55.7623 38.0307 55.693 37.892H55.225C55.225 37.8573 55.1903 37.7707 55.121 37.632H54.653L54.497 37.372H54.549L54.237 36.592H53.977C53.9423 36.4533 53.9077 36.332 53.873 36.228C53.8383 36.0893 53.8037 35.9507 53.769 35.812H51.793C51.689 35.4307 51.637 35.084 51.637 34.772H53.353V34.252C53.353 34.0787 53.353 33.9053 53.353 33.732C53.353 33.524 53.3703 33.3507 53.405 33.212H54.965C54.9997 33.0387 55.0343 32.8653 55.069 32.692C55.1037 32.484 55.1383 32.3107 55.173 32.172H53.717L53.821 31.912H53.873L53.977 31.652H53.925C53.9943 31.5133 54.0637 31.392 54.133 31.288C54.2023 31.1493 54.2543 31.0107 54.289 30.872H51.221L51.533 30.352H50.389C50.493 30.248 50.5623 30.1613 50.597 30.092H52.469C52.5383 30.0227 52.6077 29.936 52.677 29.832C52.7463 29.728 52.8157 29.6413 52.885 29.572H52.989C53.3357 29.156 53.6997 28.8093 54.081 28.532H49.817C50.0597 28.3587 50.3197 28.1853 50.597 28.012C50.8397 27.804 51.0997 27.6307 51.377 27.492H54.237L54.705 27.232H56.161C56.2303 27.1627 56.317 27.1107 56.421 27.076C56.525 27.0413 56.6117 27.0067 56.681 26.972H57.305C57.929 26.66 58.605 26.4 59.333 26.192H62.505C62.9903 26.0187 63.4757 25.88 63.961 25.776C64.481 25.6373 65.0183 25.516 65.573 25.412H64.273L65.105 25.256L70.617 24.372V24.112H73.269V23.852H68.277V23.592H71.241C71.241 23.4187 71.241 23.28 71.241 23.176C71.241 23.0373 71.2237 22.916 71.189 22.812C71.1543 22.5 71.033 22.24 70.825 22.032H69.941C69.9063 21.9973 69.8197 21.9453 69.681 21.876L69.317 22.032H68.433C68.2943 22.136 68.1557 22.2573 68.017 22.396C67.8783 22.5 67.7223 22.6387 67.549 22.812H67.601C67.2197 23.1933 66.7343 23.384 66.145 23.384H57.305C56.785 23.384 56.4383 23.1933 56.265 22.812H56.213C56.109 22.6387 56.0743 22.448 56.109 22.24V22.032H56.941C56.9757 21.9627 56.993 21.876 56.993 21.772H53.665C53.665 21.6333 53.6997 21.46 53.769 21.252H61.257C61.257 21.2173 61.2917 21.1307 61.361 20.992H56.733C56.837 20.6453 56.993 20.2987 57.201 19.952H58.085C58.189 19.7787 58.3103 19.6053 58.449 19.432C58.5877 19.2587 58.7263 19.0853 58.865 18.912H54.965L55.433 18.392H62.973C63.1117 18.2533 63.2503 18.132 63.389 18.028C63.5623 17.8893 63.7183 17.7507 63.857 17.612H59.073L59.385 17.352H57.929C58.1023 17.2133 58.293 17.092 58.501 16.988C58.709 16.8493 58.917 16.7107 59.125 16.572H61.569C62.297 16.156 63.0597 15.8093 63.857 15.532H64.221C65.157 15.1853 66.197 14.9253 67.341 14.752C68.5197 14.544 69.8023 14.44 71.189 14.44C74.0317 14.44 76.441 14.804 78.417 15.532H78.001C78.3823 15.6707 78.7463 15.8267 79.093 16C79.4743 16.1733 79.8383 16.364 80.185 16.572H77.741L78.833 17.352H80.289L80.601 17.612H85.385L86.165 18.392H78.625C78.6943 18.4613 78.7637 18.548 78.833 18.652C78.9023 18.756 78.9717 18.8427 79.041 18.912H82.889C83.0277 19.0507 83.149 19.224 83.253 19.432C83.3917 19.6053 83.4957 19.7787 83.565 19.952H82.733L83.201 20.992H87.829C87.8983 21.1307 87.933 21.2173 87.933 21.252H80.445C80.5143 21.3213 80.549 21.408 80.549 21.512C80.5837 21.616 80.6183 21.7027 80.653 21.772H82.369C82.369 21.8067 82.369 21.8413 82.369 21.876C82.4037 21.9107 82.421 21.9627 82.421 22.032H83.305L83.617 23.592H80.601C80.601 23.6267 80.601 23.6613 80.601 23.696C80.6357 23.7307 80.653 23.7827 80.653 23.852H85.645V24.112H83.045V24.372C83.0797 24.5453 83.097 24.7187 83.097 24.892C83.097 25.0653 83.097 25.2387 83.097 25.412H84.449V26.192H81.225V26.972H80.653V27.232H79.249V27.492H76.389V28.532H80.653V29.572H80.549V30.092H78.677V30.352H79.821V30.872H83.253V31.652H82.629V32.172H83.045V33.212H82.733V34.772H81.017V35.812H82.993V36.592H83.253V37.632H83.721V37.892H84.137V38.672H82.525V39.192H82.213ZM67.133 21.72C66.8903 21.72 66.717 21.7373 66.613 21.772H67.705C67.601 21.7373 67.4103 21.72 67.133 21.72ZM67.497 30.768L67.029 30.872H67.497V30.768ZM65.729 32.172H67.185C66.8037 32.4493 66.613 32.796 66.613 33.212H65.053V33.368C65.053 33.7147 65.1743 34.0093 65.417 34.252C65.5903 34.4947 65.937 34.668 66.457 34.772H67.705C68.225 34.668 68.6757 34.4947 69.057 34.252C69.369 33.9747 69.6637 33.628 69.941 33.212H70.201C70.2703 33.0387 70.3397 32.8827 70.409 32.744C70.4783 32.5707 70.5303 32.38 70.565 32.172H70.149C70.149 32.1027 70.149 32.0507 70.149 32.016C70.1837 31.9813 70.201 31.9467 70.201 31.912H70.253V31.652H70.877C70.9117 31.5133 70.929 31.392 70.929 31.288C70.929 31.1493 70.929 31.0107 70.929 30.872H70.045L67.497 31.444C67.3583 31.4787 67.2197 31.5133 67.081 31.548C66.977 31.5827 66.873 31.6173 66.769 31.652C66.665 31.6867 66.561 31.7213 66.457 31.756C66.353 31.7907 66.2663 31.8427 66.197 31.912H66.145C66.0757 31.9467 66.0063 31.9813 65.937 32.016C65.8677 32.0507 65.7983 32.1027 65.729 32.172ZM65.989 34.772H64.689C64.8277 34.8067 65.0357 34.824 65.313 34.824C65.417 34.824 65.521 34.824 65.625 34.824C65.7637 34.824 65.885 34.8067 65.989 34.772ZM111.81 36.072H110.562V36.592H112.434V37.112H114.15V37.892H112.954V38.672H116.438V39.452H110.77V40.492H111.186V40.596C111.186 40.6653 111.168 40.7173 111.134 40.752C111.064 41.0987 110.943 41.3587 110.77 41.532H110.354C110.215 41.6707 110.111 41.7573 110.042 41.792H111.81C111.636 41.9307 111.394 42 111.082 42H105.206C104.616 42 104.027 41.9827 103.438 41.948C102.883 41.9133 102.346 41.8613 101.826 41.792H100.058C99.8149 41.7573 99.5722 41.7227 99.3295 41.688C99.0869 41.6187 98.8269 41.5667 98.5495 41.532H98.9655C98.5149 41.428 98.0815 41.3067 97.6655 41.168C97.2842 41.0293 96.9029 40.8907 96.5215 40.752H96.5735C96.4695 40.6827 96.3655 40.6307 96.2615 40.596C96.1575 40.5613 96.0709 40.5267 96.0015 40.492H95.5855C95.3082 40.3187 95.0309 40.1627 94.7535 40.024C94.4762 39.8507 94.1989 39.66 93.9215 39.452H99.6415C99.5029 39.3133 99.3469 39.192 99.1735 39.088C99.0349 38.9493 98.8962 38.8107 98.7575 38.672H95.2735L94.5975 37.892H95.8455C95.7415 37.7533 95.6375 37.632 95.5335 37.528C95.4642 37.3893 95.3949 37.2507 95.3255 37.112H93.6095L93.2975 36.592H91.4255C91.3909 36.5227 91.3562 36.436 91.3215 36.332C91.2869 36.228 91.2349 36.1413 91.1655 36.072H92.4655L92.1535 35.292H93.1935L93.0375 34.772C92.9682 34.564 92.9335 34.3907 92.9335 34.252H97.0415C97.0069 34.1133 96.9722 33.992 96.9375 33.888C96.9375 33.7493 96.9375 33.6107 96.9375 33.472H91.0095C91.0095 33.4027 90.9922 33.3507 90.9575 33.316C90.9575 33.2813 90.9575 33.2467 90.9575 33.212H90.8015C90.8015 33.0733 90.7842 32.952 90.7495 32.848C90.7495 32.7093 90.7495 32.5707 90.7495 32.432H90.5935C90.5935 32.2933 90.5762 32.172 90.5415 32.068C90.5415 31.9293 90.5415 31.7907 90.5415 31.652H91.2695V31.392H90.8015V30.872H90.3855V29.832H91.0095V28.792H90.3855V28.012H90.8535V27.492H90.9055V26.712H91.1655V24.892H91.2695V24.112H91.5295V24.06H87.4215C86.9015 24.06 86.4855 23.8173 86.1735 23.332H86.9535C86.8495 23.124 86.7975 22.8987 86.7975 22.656V22.292H85.1335V21.512H85.4975V20.472H85.2375V19.952H85.3415V19.432H86.1215V19.172H84.8215V18.392H86.3815V17.612H86.0695V17.092H85.7055V16.312H85.3935V16.052H85.2375C85.3415 15.532 85.6709 15.1853 86.2255 15.012H86.5375C86.6415 14.9773 86.7802 14.96 86.9535 14.96H91.0615V14.752H91.2695V13.972H90.8535V13.452H90.8015V12.672H90.5935V12.412H89.3455V11.892H88.1495V11.632H88.5655V11.372H89.7615V10.332H90.2295V9.812H88.5655V9.292H91.1135V8.512H90.8535V8.252H90.2815V7.732H90.8015V7.472H90.2815V6.692H90.7495V6.484C90.7495 6.31067 90.7842 6.12 90.8535 5.912H91.5295C91.7722 5.35733 92.2055 5.08 92.8295 5.08H101.93C102.484 5.08 102.918 5.35733 103.23 5.912H102.554C102.623 6.12 102.658 6.31067 102.658 6.484V6.692H102.19V7.472H102.71V7.732H102.19V8.252H102.762V8.512H103.022V9.292H100.474V9.812H102.138V10.332H101.67V11.372H100.474V11.632H100.058V11.892H101.254V12.412H102.502V12.672H102.71V13.452H102.762V13.972H103.178V14.752H102.97V14.96H109.522C109.695 14.96 109.816 14.9773 109.886 15.012H109.574C110.059 15.1853 110.388 15.532 110.562 16.052H110.718C110.718 16.0867 110.718 16.1213 110.718 16.156C110.752 16.1907 110.77 16.2427 110.77 16.312H111.082V17.092H111.446V17.612H111.758V18.392H110.198V19.172H111.498V19.432H110.718V19.952H110.614V20.472H110.874V21.512H110.51V22.292H112.174V22.656C112.174 22.7947 112.156 22.916 112.122 23.02C112.087 23.124 112.035 23.228 111.966 23.332H111.238C110.926 23.8173 110.51 24.06 109.99 24.06H103.438V24.112H103.178V24.892H103.074V26.712H102.814V27.492H102.762V28.012H102.294V28.792H102.918V29.832H102.294C102.294 30.0053 102.294 30.1787 102.294 30.352C102.328 30.5253 102.363 30.6987 102.398 30.872H102.866C102.935 31.08 103.004 31.2533 103.074 31.392H103.49L103.646 31.652H102.918C103.299 32.1373 103.888 32.38 104.686 32.38H109.418C109.591 32.38 109.712 32.3973 109.782 32.432H109.938C110.354 32.536 110.648 32.796 110.822 33.212H110.978C110.978 33.2467 110.978 33.2813 110.978 33.316C111.012 33.3507 111.03 33.4027 111.03 33.472H116.958C116.958 33.5067 116.958 33.5587 116.958 33.628C116.992 33.6627 117.01 33.7147 117.01 33.784V34.252H112.85V35.292H111.81V36.072ZM143.801 25.152H147.337C147.337 25.1867 147.32 25.2213 147.285 25.256C147.251 25.2907 147.216 25.3427 147.181 25.412H145.985C145.708 25.7587 145.327 25.932 144.841 25.932H134.701C134.216 25.932 133.835 25.7587 133.557 25.412H134.753L134.597 25.152H131.009L130.853 24.892C130.819 24.7533 130.732 24.58 130.593 24.372H129.709C129.501 23.9907 129.276 23.7307 129.033 23.592H130.333C130.056 23.4187 129.727 23.332 129.345 23.332C128.929 23.332 128.583 23.4187 128.305 23.592H127.213C126.936 23.7307 126.711 23.9907 126.537 24.372H126.069C126 24.5107 125.931 24.684 125.861 24.892H128.669C128.635 24.9613 128.617 25.048 128.617 25.152H130.021C129.987 25.2213 129.969 25.308 129.969 25.412H131.685C131.651 25.4813 131.633 25.568 131.633 25.672C131.633 25.776 131.616 25.8627 131.581 25.932H131.789V26.192H129.761V26.712H123.261V26.972H133.245C133.211 27.1453 133.193 27.3187 133.193 27.492C133.193 27.6653 133.193 27.8387 133.193 28.012H123.989V28.272H127.681V28.532H126.693V29.572H123.885C123.885 29.7107 123.885 29.8493 123.885 29.988C123.885 30.092 123.903 30.2133 123.937 30.352V30.872H127.057C127.057 31.1147 127.075 31.288 127.109 31.392H124.249C124.319 31.8427 124.388 32.1893 124.457 32.432H123.885C124.093 32.9173 124.388 33.264 124.769 33.472H126.485C126.763 33.576 127.057 33.628 127.369 33.628C127.751 33.628 128.063 33.576 128.305 33.472H129.033C129.345 33.2987 129.64 32.952 129.917 32.432H128.513L128.669 32.068C128.739 31.9293 128.808 31.808 128.877 31.704C128.981 31.5653 129.068 31.4613 129.137 31.392H132.777C133.089 31.1493 133.436 31.028 133.817 31.028H143.957C144.304 31.028 144.633 31.1493 144.945 31.392H141.305C141.652 31.6693 141.791 32.016 141.721 32.432H143.125C143.091 32.5707 143.056 32.7267 143.021 32.9C143.021 33.0733 142.987 33.264 142.917 33.472H142.137L141.981 33.992H145.309L145.205 34.252H144.113L144.009 34.512H138.237L138.081 34.772H144.373L143.801 35.812H144.321L144.165 36.072H140.265C140.161 36.2453 140.04 36.4187 139.901 36.592C139.797 36.7653 139.676 36.9387 139.537 37.112H138.601C138.567 37.1467 138.532 37.1813 138.497 37.216C138.463 37.2507 138.428 37.3027 138.393 37.372H141.981C141.947 37.4067 141.912 37.4413 141.877 37.476C141.843 37.5107 141.808 37.5627 141.773 37.632H139.173C139.139 37.6667 139.104 37.7013 139.069 37.736C139.035 37.7707 138.983 37.8227 138.913 37.892H141.097L140.577 38.412H140.317L140.057 38.672H140.681L140.057 39.192H140.993C140.82 39.3307 140.629 39.4693 140.421 39.608C140.248 39.712 140.057 39.8333 139.849 39.972H140.889L140.473 40.232H139.329L138.393 40.752H138.705C138.151 41.064 137.527 41.324 136.833 41.532H135.949C135.637 41.636 135.325 41.74 135.013 41.844C134.701 41.9133 134.389 41.9827 134.077 42.052H133.609C133.367 42.0867 133.124 42.1213 132.881 42.156C132.639 42.2253 132.396 42.2773 132.153 42.312H133.193C132.708 42.3813 132.205 42.4333 131.685 42.468C131.165 42.5027 130.628 42.52 130.073 42.52C129.553 42.52 129.051 42.5027 128.565 42.468C128.08 42.4333 127.595 42.3813 127.109 42.312H126.017C125.775 42.2773 125.532 42.2253 125.289 42.156C125.081 42.1213 124.856 42.0867 124.613 42.052H125.081C124.769 41.9827 124.457 41.9133 124.145 41.844C123.833 41.74 123.539 41.636 123.261 41.532H124.145C123.487 41.324 122.88 41.064 122.325 40.752H121.961C121.823 40.6827 121.667 40.6133 121.493 40.544C121.355 40.44 121.216 40.336 121.077 40.232H122.169L121.753 39.972H120.713L119.673 39.192H118.789C118.685 39.1227 118.581 39.036 118.477 38.932C118.373 38.828 118.287 38.7413 118.217 38.672H117.541L117.281 38.412H117.541L117.021 37.892H114.889C114.785 37.788 114.716 37.7013 114.681 37.632H117.281C117.177 37.528 117.108 37.4413 117.073 37.372H113.433C113.399 37.3027 113.329 37.216 113.225 37.112H114.161C114.023 36.9387 113.901 36.7653 113.797 36.592C113.693 36.4187 113.589 36.2453 113.485 36.072H117.385L117.229 35.812H116.709C116.605 35.6387 116.501 35.4653 116.397 35.292C116.328 35.1187 116.259 34.9453 116.189 34.772H109.949L109.845 34.512H115.617L115.513 34.252H116.605L116.501 33.992H113.173L113.017 33.472H111.301C111.267 33.2987 111.232 33.1253 111.197 32.952C111.163 32.7787 111.128 32.6053 111.093 32.432H111.613L111.457 31.392H114.317V30.872H111.197V30.612C111.163 30.4387 111.145 30.2653 111.145 30.092C111.145 29.9187 111.145 29.7453 111.145 29.572H113.953V28.532H114.941V28.272H111.249V28.012H120.453V26.972H110.521V26.712H117.021V26.192H119.049V25.932H118.841C118.876 25.8627 118.893 25.776 118.893 25.672C118.893 25.568 118.893 25.4813 118.893 25.412H117.229V25.152H115.825C115.825 25.048 115.843 24.9613 115.877 24.892H113.069C113.139 24.684 113.173 24.5107 113.173 24.372H113.693L113.849 23.592H114.941L115.253 22.552H115.357C115.392 22.4133 115.444 22.292 115.513 22.188C115.583 22.0493 115.635 21.9107 115.669 21.772H115.409C115.479 21.5987 115.548 21.4253 115.617 21.252C115.721 21.044 115.825 20.8707 115.929 20.732H115.617C115.687 20.5933 115.756 20.472 115.825 20.368C115.929 20.2293 116.033 20.0907 116.137 19.952H116.189C116.328 19.7787 116.467 19.6053 116.605 19.432C116.744 19.224 116.883 19.0507 117.021 18.912H117.073C117.281 18.6347 117.541 18.3747 117.853 18.132H117.593L117.905 17.872H117.801L118.113 17.612H120.037C120.107 17.5427 120.176 17.4907 120.245 17.456C120.315 17.4213 120.367 17.3867 120.401 17.352H119.257C119.327 17.2827 119.396 17.2307 119.465 17.196C119.535 17.1613 119.587 17.1267 119.621 17.092H119.205C119.829 16.676 120.436 16.3293 121.025 16.052H122.065C122.273 15.948 122.481 15.8613 122.689 15.792C122.897 15.688 123.105 15.6013 123.313 15.532H122.117C122.256 15.4627 122.377 15.4107 122.481 15.376C122.62 15.3413 122.759 15.3067 122.897 15.272H122.845C123.019 15.2027 123.175 15.1507 123.313 15.116C123.487 15.0813 123.643 15.0467 123.781 15.012H123.625C125.151 14.6307 126.745 14.44 128.409 14.44C129.345 14.44 130.229 14.492 131.061 14.596C131.893 14.7 132.673 14.8387 133.401 15.012H133.557C133.731 15.0467 133.887 15.0813 134.025 15.116C134.199 15.1507 134.355 15.2027 134.493 15.272H134.545C134.684 15.3067 134.805 15.3413 134.909 15.376C135.048 15.4107 135.187 15.4627 135.325 15.532H136.521C137.041 15.7053 137.475 15.8787 137.821 16.052H136.729C137.076 16.1907 137.405 16.364 137.717 16.572C138.029 16.7453 138.341 16.9187 138.653 17.092H139.069C139.139 17.1267 139.208 17.1613 139.277 17.196C139.347 17.2307 139.399 17.2827 139.433 17.352H140.577C140.647 17.3867 140.699 17.4213 140.733 17.456C140.803 17.4907 140.872 17.5427 140.941 17.612H139.017L139.329 17.872H139.433L139.745 18.132H139.953C140.127 18.2707 140.283 18.4093 140.421 18.548C140.56 18.652 140.699 18.7733 140.837 18.912H140.785C140.959 19.0853 141.115 19.2587 141.253 19.432C141.427 19.6053 141.583 19.7787 141.721 19.952H141.669C141.773 20.0907 141.877 20.2293 141.981 20.368C142.085 20.472 142.172 20.5933 142.241 20.732H142.553C142.692 20.9053 142.813 21.0787 142.917 21.252C143.021 21.4253 143.108 21.5987 143.177 21.772H143.489C143.559 21.9107 143.628 22.0493 143.697 22.188C143.767 22.292 143.819 22.4133 143.853 22.552H143.801C143.871 22.7253 143.94 22.8987 144.009 23.072C144.079 23.2453 144.131 23.4187 144.165 23.592H142.865L143.021 24.372H143.905V24.892L143.801 25.152ZM181.661 34.512H176.877V35.032H180.257V35.292H179.633V35.812H178.333V37.112H178.801V37.632H180.257V38.152H176.773V39.192H180.465V39.972H178.281V40.492H178.957V40.752H178.333C178.264 40.96 178.194 41.1333 178.125 41.272C178.09 41.3413 178.021 41.428 177.917 41.532H177.969C177.83 41.6707 177.726 41.7573 177.657 41.792H177.553C177.38 41.9307 177.137 42 176.825 42H166.633C166.356 42 166.096 41.9307 165.853 41.792H166.009C165.94 41.7573 165.836 41.6707 165.697 41.532H165.645C165.541 41.428 165.472 41.3413 165.437 41.272H165.489C165.385 41.0987 165.333 40.9253 165.333 40.752H165.957V40.492H165.281V39.972H167.465V39.192H163.773V38.152H167.257V37.632H165.801V37.112H165.333V35.812H166.633V35.292H167.257V35.032H163.877V34.512H168.661V33.992H165.229V33.212H166.841V32.692H164.761V33.212H163.565V33.992H162.681V34.512H163.201V35.032H161.329V35.292H160.237V35.812H160.133V36.332H160.029V37.112H158.157V37.632H155.973V38.152H159.353V39.192H155.349V39.972H156.597V40.492H159.405V40.752H160.133L159.977 41.272H159.925C159.89 41.3067 159.856 41.3413 159.821 41.376C159.786 41.4107 159.752 41.4627 159.717 41.532H159.769C159.63 41.6707 159.526 41.7573 159.457 41.792H160.601C160.358 41.9307 160.098 42 159.821 42H149.681C149.369 42 149.126 41.9307 148.953 41.792H147.809C147.74 41.7573 147.636 41.6707 147.497 41.532C147.393 41.428 147.324 41.3413 147.289 41.272H147.341C147.306 41.2027 147.272 41.1333 147.237 41.064C147.202 40.96 147.185 40.856 147.185 40.752H146.457V40.492H143.649V39.972H142.401V39.192H146.405V38.152H143.025V37.632H145.209V37.112H147.081V36.332H147.185V35.812H147.289V35.292H148.381V35.032H150.253V34.512H149.733V33.992H150.617V33.212H151.813V32.692H145.417V32.432H146.145V32.172H147.341V31.912H146.301V31.652H147.237V30.872H147.185V30.092H146.301V29.832H147.029V29.312H147.809V29.052H146.509V28.012H145.105V27.492H146.301V26.452H147.757V26.192H146.925V25.932H146.873V25.672H147.081V25.152H148.537V24.892H146.509V24.372H147.185V23.592H148.277V23.332H147.601V22.552H147.133V22.292H146.717V21.512H147.705V20.472H146.093V19.432H147.705V18.652H146.041V17.612H147.133V17.352H147.653V16.572H147.081V15.792H146.925V14.752H147.341V13.972H148.849V13.192H146.925V12.672H145.729V11.632H142.713V10.592H148.173V9.552H147.705V8.512H145.573V7.992H149.109V7.732H147.029V6.692H146.509V6.484C146.509 6.31067 146.544 6.12 146.613 5.912H147.237C147.48 5.35733 147.913 5.08 148.537 5.08H158.677C159.301 5.08 159.734 5.35733 159.977 5.912H159.353C159.422 6.12 159.457 6.31067 159.457 6.484V6.692H159.977V7.732H162.057V7.992H158.521V8.512H160.653V9.552H161.121V10.592H155.661V11.632H158.677V12.672H159.873V13.192H161.797V13.972H160.289V14.752H159.873V15.792H160.029V16.572H160.601V17.352H161.849C162.022 17.2133 162.178 17.092 162.317 16.988C162.456 16.8493 162.612 16.7107 162.785 16.572H161.277C161.485 16.4333 161.676 16.2947 161.849 16.156C162.057 16.0173 162.282 15.896 162.525 15.792C163.392 15.3067 164.31 14.96 165.281 14.752H166.477C167.378 14.544 168.297 14.44 169.233 14.44C170.134 14.44 171.001 14.544 171.833 14.752H170.637C171.538 14.96 172.405 15.3067 173.237 15.792C173.41 15.896 173.601 16.0173 173.809 16.156C174.017 16.26 174.208 16.3987 174.381 16.572H175.837C176.01 16.7107 176.149 16.8493 176.253 16.988C176.392 17.092 176.53 17.2133 176.669 17.352H175.317C175.352 17.3867 175.386 17.4213 175.421 17.456C175.456 17.4907 175.49 17.5427 175.525 17.612H174.329C174.502 17.7507 174.641 17.924 174.745 18.132C174.884 18.3053 175.022 18.4787 175.161 18.652H176.877L177.345 19.432H175.733L176.201 20.472H177.865C177.934 20.6107 178.004 20.784 178.073 20.992C178.142 21.1653 178.194 21.3387 178.229 21.512H177.241C177.31 21.6507 177.345 21.7893 177.345 21.928C177.38 22.032 177.414 22.1533 177.449 22.292H177.865C177.9 22.3613 177.917 22.448 177.917 22.552H178.437L178.593 23.332H179.217C179.252 23.4013 179.269 23.488 179.269 23.592H178.229L178.281 24.112H177.761V24.372H178.593C178.628 24.4413 178.645 24.528 178.645 24.632C178.645 24.736 178.645 24.8227 178.645 24.892H180.101V25.152H178.385V25.672H178.333C178.368 25.7413 178.385 25.828 178.385 25.932H178.333V26.192H178.177V26.452H178.281V27.492H176.253V28.012H178.437V29.052H178.229V29.312H178.697V29.832H177.709V30.092H178.541V30.872H179.321V31.652H178.333V31.912H178.853V32.172H179.217V32.432H177.033V32.692H179.841V33.212H178.229V33.992H181.661V34.512ZM160.445 17.352H160.081V17.612H160.185C160.254 17.5427 160.306 17.4907 160.341 17.456C160.376 17.4213 160.41 17.3867 160.445 17.352ZM164.033 32.432H166.217V32.172H165.853V31.912H165.333V31.652H166.321V30.872H165.541V30.092H164.709V29.832H165.697V29.312H165.229V29.052H165.437V28.012H163.253V27.492H165.281V26.452H165.177V26.192H165.333C165.333 26.1227 165.316 26.0707 165.281 26.036C165.281 26.0013 165.281 25.9667 165.281 25.932H165.333C165.298 25.8627 165.281 25.776 165.281 25.672H165.333L165.177 25.152H166.893C166.824 25.0133 166.789 24.9267 166.789 24.892H165.333C165.298 24.788 165.229 24.7013 165.125 24.632C165.056 24.528 164.986 24.4413 164.917 24.372H164.085C163.946 24.2333 163.825 24.1467 163.721 24.112H164.293C163.912 23.8693 163.409 23.748 162.785 23.748C162.161 23.748 161.676 23.8693 161.329 24.112H161.277C161.208 24.1467 161.104 24.2333 160.965 24.372H160.289C160.22 24.4413 160.15 24.528 160.081 24.632C160.012 24.7013 159.942 24.788 159.873 24.892H161.849C161.78 25.0307 161.745 25.1173 161.745 25.152H160.289L160.133 25.672H159.873C159.873 25.776 159.856 25.8627 159.821 25.932H159.925V26.192H160.705V26.452H159.249V27.492H158.053V28.012H159.457V29.052H160.757V29.312H159.977V29.832H159.249V30.092H160.133V30.872H160.185V31.652H159.249V31.912H160.289V32.172H159.093V32.432H158.365V32.692H164.033V32.432ZM215.251 20.472L215.095 21.252H223.675L223.571 21.772H215.667L215.615 22.032H218.891L218.735 23.072H219.827L219.723 23.852H220.347L220.191 24.632H220.243L220.139 25.412H220.347V25.672H220.243L220.087 26.712H219.931L219.775 27.752L219.671 28.792H220.659L220.607 29.052H220.035V29.312H221.075V29.572H219.411L219.359 29.832H218.787L218.683 30.612H220.399L220.243 31.652H222.219L222.115 32.432H220.555L220.503 32.692H219.723L219.567 33.732H219.983L219.931 34.252H220.399L220.295 35.032H219.515L219.411 35.812H217.695L217.643 36.332H219.411L219.255 37.372H218.111L218.007 38.412H219.047L218.943 39.192H214.939L214.835 39.712H216.343L216.291 40.024V40.232H217.695C217.661 40.3013 217.626 40.388 217.591 40.492C217.591 40.596 217.557 40.6827 217.487 40.752H216.915C216.742 41.064 216.517 41.324 216.239 41.532H216.707C216.499 41.6707 216.343 41.7573 216.239 41.792H216.655C216.378 41.9307 216.031 42 215.615 42H208.179C207.971 42 207.781 41.9827 207.607 41.948C207.469 41.8787 207.33 41.8267 207.191 41.792H206.775C206.671 41.7573 206.585 41.7227 206.515 41.688C206.446 41.6187 206.377 41.5667 206.307 41.532H205.891C205.753 41.3933 205.631 41.2547 205.527 41.116C205.423 40.9773 205.337 40.856 205.267 40.752H205.839C205.805 40.7173 205.787 40.6653 205.787 40.596L205.631 40.232H204.227L204.019 39.712H202.511L202.303 39.192H206.307L205.995 38.412H204.903L204.487 37.372H205.631L205.215 36.332H203.447L203.239 35.812H204.903L204.591 35.032H205.371L205.059 34.252H204.591L204.383 33.732H203.967L203.551 32.692H204.331L204.227 32.432H205.787L205.475 31.652H203.499L203.083 30.612H201.367L201.107 29.936L200.847 30.612H200.639L200.223 31.652H203.447L203.135 32.432H200.587L200.483 32.692H200.951L200.535 33.732H201.471L201.263 34.252H198.663L198.351 35.032H199.755L199.443 35.812H197.727L197.519 36.332H198.351L197.935 37.372H197.987L197.571 38.412H194.139L193.827 39.192H199.287L199.079 39.712H197.935L197.727 40.232H197.623L197.467 40.596L197.363 40.752H195.751C195.682 40.856 195.595 40.9773 195.491 41.116C195.422 41.2547 195.301 41.3933 195.127 41.532H195.439C195.335 41.636 195.197 41.7227 195.023 41.792H196.427C196.289 41.8267 196.133 41.8787 195.959 41.948C195.786 41.9827 195.595 42 195.387 42H187.951C187.535 42 187.189 41.9307 186.911 41.792H185.559C185.455 41.7573 185.299 41.6707 185.091 41.532H184.727C184.415 41.2893 184.19 41.0293 184.051 40.752H185.715C185.681 40.6827 185.646 40.596 185.611 40.492C185.577 40.388 185.542 40.3013 185.507 40.232H185.663L185.611 40.024L185.559 39.712H186.703L186.599 39.192H181.191L181.087 38.412H184.467L184.363 37.372H184.311L184.155 36.332H183.323L183.271 35.812H184.935L184.831 35.032H183.479L183.375 34.252H185.975L185.871 33.732H184.935L184.779 32.692H184.311L184.259 32.432H186.807L186.703 31.652H183.479L183.323 30.612H183.531L183.375 29.832H183.947V29.572H185.611L185.559 29.312H184.467L184.415 29.052H184.987V28.792H183.947L183.895 28.272H183.843L183.791 27.752L183.635 26.712H183.791L183.635 25.672H183.739L183.687 25.412H183.479L183.375 24.632H183.323L183.219 23.852H182.595L182.491 23.072H181.399L181.243 22.032H177.967V21.772H185.871L185.819 21.252H182.699L182.595 20.472H179.319L179.267 19.952H183.999L183.843 18.912H182.595V18.652H183.323L183.271 18.392H184.363L184.259 17.612H182.491L182.439 17.352H178.383L178.279 16.312H182.803L182.647 15.272H181.503L181.451 14.752H181.919L181.815 13.972H181.971L181.919 13.712H180.307L180.255 13.192H181.347L181.243 12.412H181.347L181.243 11.632H182.127L182.023 11.112H179.215L179.163 10.592H181.399L181.347 10.072H180.047L179.995 9.552H181.607L181.503 8.772H180.983L180.827 7.732H181.399L181.347 7.472L181.243 6.9V6.692H180.463C180.533 5.964 180.914 5.6 181.607 5.6H191.279C192.354 5.6 192.961 5.964 193.099 6.692H193.879C193.914 6.76133 193.931 6.86533 193.931 7.004L193.983 7.472L194.035 7.732H193.515L193.619 8.772H194.139L194.243 9.552H192.579L192.683 10.072H193.931L193.983 10.592H191.747L191.799 11.112H194.607L194.711 11.632H193.827L193.879 12.412H193.827L193.879 13.192H192.735L192.839 13.712H194.399L194.451 13.972H194.295L194.399 14.752H193.931L193.983 15.272H195.127L195.283 16.312H190.707L190.811 17.352H194.867L194.919 17.612H196.687L196.791 18.392H195.699V18.652H194.971L195.023 18.912H196.115L196.219 18.652H196.739L196.843 18.392H199.027L199.287 17.612H196.895L196.947 17.352H200.951L201.315 16.312H197.103L197.415 15.272H196.947V15.168L197.103 14.752H198.091C198.161 14.6133 198.23 14.4747 198.299 14.336C198.403 14.1973 198.525 14.076 198.663 13.972H198.351C198.525 13.8333 198.715 13.7467 198.923 13.712H199.391C199.495 13.6773 199.651 13.66 199.859 13.66H205.163C205.371 13.66 205.51 13.6773 205.579 13.712H205.111C205.25 13.7467 205.354 13.7813 205.423 13.816C205.527 13.8507 205.614 13.9027 205.683 13.972H205.995C206.169 14.076 206.29 14.1973 206.359 14.336C206.463 14.4747 206.533 14.6133 206.567 14.752H205.631C205.735 14.8907 205.787 15.0293 205.787 15.168L205.839 15.272H206.359L206.671 16.312H208.699L208.855 15.272H208.543L208.595 14.752H211.039L211.091 13.972H208.803L208.855 13.712H208.439L208.543 13.192H209.427L209.531 12.412H209.219L209.323 11.632H210.051L210.103 11.112H206.931L206.983 10.592H207.919L207.971 10.072H209.739L209.791 9.552H209.739L209.843 8.772L209.947 7.732H208.907L208.959 7.472H210.207L210.311 7.004V6.692H211.299C211.438 5.964 212.045 5.6 213.119 5.6H222.791C223.069 5.6 223.311 5.704 223.519 5.912C223.762 6.12 223.901 6.38 223.935 6.692H222.999V6.9L222.895 7.472H221.595L221.543 7.732H222.635L222.479 8.772L222.375 9.552H222.427L222.323 10.072H220.555L220.503 10.592H219.567L219.463 11.112H222.687L222.635 11.632H221.907L221.803 12.412H222.063L221.959 13.192H221.075L220.971 13.712H221.387L221.335 13.972H223.623L223.519 14.752H221.127L221.023 15.272H221.335L221.179 16.312H219.307L219.151 17.352H221.439L221.387 17.612H218.735L218.631 18.392H221.075V18.652H220.919L220.867 18.912H221.023L220.867 19.952H221.699L221.595 20.472H215.251ZM209.011 17.352H207.243L207.295 17.612H208.959L209.011 17.352ZM207.763 18.392L207.867 18.652H207.347L207.451 18.912L207.815 19.952H202.199L202.355 20.472H209.271L209.323 19.952H208.491L208.647 18.912H208.491L208.543 18.652H208.647L208.699 18.392H207.763ZM198.299 21.252H198.143L198.195 21.668L198.299 21.252ZM211.299 21.616L211.351 21.252H211.143L211.299 21.616ZM252.058 27.752V28.272H258.662V28.792H254.658V29.312H252.786V29.832H254.398V30.144C254.398 30.352 254.381 30.508 254.346 30.612H255.074C254.831 31.236 254.381 31.548 253.722 31.548H238.226V31.652H240.306V31.808C240.306 31.9467 240.306 32.1027 240.306 32.276C240.306 32.4147 240.323 32.5533 240.358 32.692H237.55C237.55 32.796 237.55 32.9 237.55 33.004C237.585 33.0733 237.602 33.1427 237.602 33.212H237.29C237.29 33.3507 237.325 33.524 237.394 33.732H237.602C237.775 34.2173 238.053 34.564 238.434 34.772H237.03C237.273 34.9107 237.602 34.98 238.018 34.98C238.295 34.98 238.521 34.9107 238.694 34.772H241.138C241.277 34.7027 241.398 34.5987 241.502 34.46C241.641 34.3213 241.797 34.1827 241.97 34.044L242.282 33.732H241.294C241.606 33.4547 242.074 33.316 242.698 33.316H252.526C252.942 33.316 253.254 33.4547 253.462 33.732H254.398C254.571 33.9747 254.658 34.2173 254.658 34.46C254.623 34.5293 254.606 34.6333 254.606 34.772H252.162C252.093 35.1187 251.989 35.4653 251.85 35.812H249.302C249.198 35.9853 249.111 36.1587 249.042 36.332H255.49C255.421 36.5053 255.317 36.6787 255.178 36.852C255.074 37.0253 254.953 37.1987 254.814 37.372H253.254C253.115 37.58 252.977 37.7533 252.838 37.892H253.202C253.167 37.9267 253.133 37.9613 253.098 37.996C253.063 38.0307 253.029 38.0827 252.994 38.152H250.082L249.822 38.412H250.706C250.671 38.4467 250.619 38.4813 250.55 38.516C250.515 38.5507 250.481 38.6027 250.446 38.672H252.058C251.815 38.9147 251.503 39.1747 251.122 39.452H250.342C250.307 39.4867 250.255 39.5213 250.186 39.556C250.117 39.5907 250.047 39.6427 249.978 39.712H249.406C248.851 40.0933 248.245 40.44 247.586 40.752H246.91C246.494 40.96 246.043 41.1507 245.558 41.324C245.107 41.4973 244.622 41.6533 244.102 41.792H243.27C242.889 41.896 242.49 41.9827 242.074 42.052C241.658 42.156 241.207 42.2427 240.722 42.312H242.906C242.421 42.3813 241.918 42.4333 241.398 42.468C240.878 42.5027 240.323 42.52 239.734 42.52C239.179 42.52 238.625 42.5027 238.07 42.468C237.515 42.4333 236.978 42.3813 236.458 42.312H234.274C233.823 42.2427 233.39 42.156 232.974 42.052C232.558 41.9827 232.142 41.896 231.726 41.792H232.558C231.622 41.5493 230.738 41.2027 229.906 40.752H230.582C229.958 40.4053 229.421 40.0587 228.97 39.712H229.542C229.473 39.6427 229.403 39.5907 229.334 39.556C229.299 39.5213 229.247 39.4867 229.178 39.452H229.958C229.819 39.3133 229.681 39.192 229.542 39.088C229.403 38.9493 229.265 38.8107 229.126 38.672H227.462L227.202 38.412H226.318C226.283 38.3427 226.249 38.2907 226.214 38.256C226.179 38.2213 226.145 38.1867 226.11 38.152H228.97C228.935 38.0827 228.866 37.996 228.762 37.892H228.398C228.329 37.8227 228.259 37.736 228.19 37.632C228.121 37.528 228.051 37.4413 227.982 37.372H229.542C229.438 37.1987 229.334 37.0253 229.23 36.852C229.126 36.6787 229.022 36.5053 228.918 36.332H222.418C222.314 36.1587 222.227 35.9853 222.158 35.812H224.706L224.238 34.772H225.642C225.573 34.5987 225.503 34.4253 225.434 34.252C225.399 34.0787 225.347 33.9053 225.278 33.732H225.122L224.966 33.212H225.33L225.174 32.692H227.982C227.947 32.5187 227.913 32.3453 227.878 32.172C227.843 31.9987 227.809 31.8253 227.774 31.652H225.694L225.59 30.612H224.862C224.862 30.4733 224.845 30.352 224.81 30.248C224.81 30.1093 224.81 29.9707 224.81 29.832H223.198V29.312H225.018V28.792H229.022V28.272H222.418V28.168C222.418 27.9947 222.435 27.856 222.47 27.752H231.466C231.466 27.6133 231.466 27.492 231.466 27.388C231.501 27.2493 231.518 27.1107 231.518 26.972H223.25C223.25 26.9027 223.25 26.8507 223.25 26.816C223.285 26.7813 223.302 26.7467 223.302 26.712H226.734C226.734 26.608 226.751 26.5213 226.786 26.452H230.634V26.192H223.302C223.337 26.0187 223.371 25.8453 223.406 25.672C223.441 25.4987 223.475 25.3253 223.51 25.152H225.486C225.486 25.0133 225.521 24.84 225.59 24.632H223.874C223.874 24.5627 223.874 24.5107 223.874 24.476C223.909 24.4413 223.926 24.4067 223.926 24.372H225.174C225.174 24.3027 225.174 24.2507 225.174 24.216C225.209 24.1813 225.226 24.1467 225.226 24.112H223.926L224.03 23.852H225.278L225.434 23.332H226.422L226.734 22.552H225.798C225.867 22.3787 225.937 22.2053 226.006 22.032C226.075 21.824 226.162 21.6507 226.266 21.512H226.11L226.214 21.252H224.914C224.983 21.1133 225.018 21.0267 225.018 20.992H223.822L224.134 20.472H226.682C226.717 20.4027 226.786 20.316 226.89 20.212H227.826C227.965 20.0387 228.086 19.8653 228.19 19.692C228.329 19.484 228.467 19.3107 228.606 19.172H227.67C227.774 19.0333 227.878 18.912 227.982 18.808C228.121 18.6693 228.259 18.5307 228.398 18.392H230.426L230.946 17.872H227.878C228.329 17.4907 228.779 17.144 229.23 16.832H232.09L232.506 16.572H231.57C231.847 16.3987 232.177 16.2253 232.558 16.052H234.586C235.522 15.6013 236.493 15.2547 237.498 15.012H234.586C235.349 14.8387 236.146 14.7 236.978 14.596C237.81 14.492 238.677 14.44 239.578 14.44C240.479 14.44 241.329 14.492 242.126 14.596C242.923 14.7 243.686 14.8387 244.414 15.012H247.274C247.794 15.1507 248.279 15.3067 248.73 15.48C249.215 15.6533 249.683 15.844 250.134 16.052H248.106C248.279 16.1213 248.435 16.208 248.574 16.312C248.747 16.3813 248.903 16.468 249.042 16.572H249.978C250.047 16.6067 250.117 16.6413 250.186 16.676C250.255 16.7107 250.325 16.7627 250.394 16.832H247.534C247.985 17.144 248.435 17.4907 248.886 17.872H252.006L252.526 18.392H250.498C250.637 18.5307 250.758 18.6693 250.862 18.808C251.001 18.912 251.122 19.0333 251.226 19.172H252.162C252.301 19.3107 252.422 19.484 252.526 19.692C252.665 19.8653 252.803 20.0387 252.942 20.212H251.954C251.989 20.2813 252.058 20.368 252.162 20.472H249.562L249.874 20.992H251.07L251.226 21.252H252.578C252.578 21.2867 252.613 21.3733 252.682 21.512H252.838L253.306 22.552L253.618 23.332H253.67L253.826 23.852H253.202L253.306 24.112H253.774L253.878 24.372H254.71C254.71 24.4067 254.71 24.4413 254.71 24.476C254.745 24.5107 254.762 24.5627 254.762 24.632H254.346L254.502 25.152H252.526L252.682 26.192H260.014V26.452H256.166C256.166 26.4867 256.166 26.5213 256.166 26.556C256.201 26.5907 256.218 26.6427 256.218 26.712H252.734C252.769 26.7813 252.786 26.868 252.786 26.972H261.054C261.054 27.1107 261.054 27.2493 261.054 27.388C261.054 27.492 261.071 27.6133 261.106 27.752H252.058ZM236.25 24.372V24.632H237.914V25.048H242.074V24.632H242.438V24.372H241.606V24.112H241.086C241.086 24.008 241.069 23.9213 241.034 23.852H241.658C241.658 23.7133 241.623 23.54 241.554 23.332H241.502C241.467 23.02 241.363 22.76 241.19 22.552C240.843 21.9973 240.306 21.72 239.578 21.72C238.885 21.72 238.365 21.9973 238.018 22.552H238.954C238.815 22.76 238.711 23.02 238.642 23.332H237.602C237.602 23.4013 237.585 23.488 237.55 23.592C237.55 23.6613 237.533 23.748 237.498 23.852H236.25C236.25 23.956 236.233 24.0427 236.198 24.112H237.498V24.372H236.25ZM285.236 39.192V39.712H289.76V40.596C289.76 40.6653 289.743 40.7173 289.708 40.752H287.264C287.195 41.2373 286.97 41.584 286.588 41.792H286.12C285.947 41.9307 285.704 42 285.392 42H276.292C275.98 42 275.738 41.9307 275.564 41.792H275.98C275.634 41.5493 275.426 41.2027 275.356 40.752H277.852V39.712H275.772C275.599 39.8853 275.408 40.0587 275.2 40.232C275.027 40.4053 274.836 40.5787 274.628 40.752H274.056C273.432 41.2027 272.808 41.5493 272.184 41.792H270.52C270.278 41.896 270 41.9827 269.688 42.052C269.411 42.156 269.116 42.2427 268.804 42.312H268.388C268.042 42.3813 267.678 42.4333 267.296 42.468C266.95 42.5027 266.586 42.52 266.204 42.52C265.788 42.52 265.372 42.5027 264.956 42.468C264.575 42.4333 264.194 42.3813 263.812 42.312H264.228C263.882 42.2427 263.535 42.156 263.188 42.052C262.876 41.9827 262.564 41.896 262.252 41.792H263.864C263.102 41.5147 262.408 41.168 261.784 40.752H262.356C262.114 40.5787 261.888 40.4053 261.68 40.232C261.472 40.0587 261.264 39.8853 261.056 39.712H258.456L257.988 39.192C257.954 39.1227 257.902 39.036 257.832 38.932C257.763 38.828 257.694 38.7413 257.624 38.672H259.184C259.115 38.5333 259.028 38.412 258.924 38.308C258.855 38.1693 258.786 38.0307 258.716 37.892H258.248C258.248 37.8573 258.214 37.7707 258.144 37.632H257.676L257.52 37.372H257.572L257.26 36.592H257C256.966 36.4533 256.931 36.332 256.896 36.228C256.862 36.0893 256.827 35.9507 256.792 35.812H254.816C254.712 35.4307 254.66 35.084 254.66 34.772H256.376V34.252C256.376 34.0787 256.376 33.9053 256.376 33.732C256.376 33.524 256.394 33.3507 256.428 33.212H257.988C258.023 33.0387 258.058 32.8653 258.092 32.692C258.127 32.484 258.162 32.3107 258.196 32.172H256.74L256.844 31.912H256.896L257 31.652H256.948C257.018 31.5133 257.087 31.392 257.156 31.288C257.226 31.1493 257.278 31.0107 257.312 30.872H254.244L254.556 30.352H253.412C253.516 30.248 253.586 30.1613 253.62 30.092H255.492C255.562 30.0227 255.631 29.936 255.7 29.832C255.77 29.728 255.839 29.6413 255.908 29.572H256.012C256.359 29.156 256.723 28.8093 257.104 28.532H252.84C253.083 28.3587 253.343 28.1853 253.62 28.012C253.863 27.804 254.123 27.6307 254.4 27.492H257.26L257.728 27.232H259.184C259.254 27.1627 259.34 27.1107 259.444 27.076C259.548 27.0413 259.635 27.0067 259.704 26.972H260.328C260.952 26.66 261.628 26.4 262.356 26.192H265.528C266.014 26.0187 266.499 25.88 266.984 25.776C267.504 25.6373 268.042 25.516 268.596 25.412H267.296L268.128 25.256L273.64 24.372V24.112H276.292V23.852H271.3V23.592H274.264C274.264 23.4187 274.264 23.28 274.264 23.176C274.264 23.0373 274.247 22.916 274.212 22.812C274.178 22.5 274.056 22.24 273.848 22.032H272.964C272.93 21.9973 272.843 21.9453 272.704 21.876L272.34 22.032H271.456C271.318 22.136 271.179 22.2573 271.04 22.396C270.902 22.5 270.746 22.6387 270.572 22.812H270.624C270.243 23.1933 269.758 23.384 269.168 23.384H260.328C259.808 23.384 259.462 23.1933 259.288 22.812H259.236C259.132 22.6387 259.098 22.448 259.132 22.24V22.032H259.964C259.999 21.9627 260.016 21.876 260.016 21.772H256.688C256.688 21.6333 256.723 21.46 256.792 21.252H264.28C264.28 21.2173 264.315 21.1307 264.384 20.992H259.756C259.86 20.6453 260.016 20.2987 260.224 19.952H261.108C261.212 19.7787 261.334 19.6053 261.472 19.432C261.611 19.2587 261.75 19.0853 261.888 18.912H257.988L258.456 18.392H265.996C266.135 18.2533 266.274 18.132 266.412 18.028C266.586 17.8893 266.742 17.7507 266.88 17.612H262.096L262.408 17.352H260.952C261.126 17.2133 261.316 17.092 261.524 16.988C261.732 16.8493 261.94 16.7107 262.148 16.572H264.592C265.32 16.156 266.083 15.8093 266.88 15.532H267.244C268.18 15.1853 269.22 14.9253 270.364 14.752C271.543 14.544 272.826 14.44 274.212 14.44C277.055 14.44 279.464 14.804 281.44 15.532H281.024C281.406 15.6707 281.77 15.8267 282.116 16C282.498 16.1733 282.862 16.364 283.208 16.572H280.764L281.856 17.352H283.312L283.624 17.612H288.408L289.188 18.392H281.648C281.718 18.4613 281.787 18.548 281.856 18.652C281.926 18.756 281.995 18.8427 282.064 18.912H285.912C286.051 19.0507 286.172 19.224 286.276 19.432C286.415 19.6053 286.519 19.7787 286.588 19.952H285.756L286.224 20.992H290.852C290.922 21.1307 290.956 21.2173 290.956 21.252H283.468C283.538 21.3213 283.572 21.408 283.572 21.512C283.607 21.616 283.642 21.7027 283.676 21.772H285.392C285.392 21.8067 285.392 21.8413 285.392 21.876C285.427 21.9107 285.444 21.9627 285.444 22.032H286.328L286.64 23.592H283.624C283.624 23.6267 283.624 23.6613 283.624 23.696C283.659 23.7307 283.676 23.7827 283.676 23.852H288.668V24.112H286.068V24.372C286.103 24.5453 286.12 24.7187 286.12 24.892C286.12 25.0653 286.12 25.2387 286.12 25.412H287.472V26.192H284.248V26.972H283.676V27.232H282.272V27.492H279.412V28.532H283.676V29.572H283.572V30.092H281.7V30.352H282.844V30.872H286.276V31.652H285.652V32.172H286.068V33.212H285.756V34.772H284.04V35.812H286.016V36.592H286.276V37.632H286.744V37.892H287.16V38.672H285.548V39.192H285.236ZM270.156 21.72C269.914 21.72 269.74 21.7373 269.636 21.772H270.728C270.624 21.7373 270.434 21.72 270.156 21.72ZM270.52 30.768L270.052 30.872H270.52V30.768ZM268.752 32.172H270.208C269.827 32.4493 269.636 32.796 269.636 33.212H268.076V33.368C268.076 33.7147 268.198 34.0093 268.44 34.252C268.614 34.4947 268.96 34.668 269.48 34.772H270.728C271.248 34.668 271.699 34.4947 272.08 34.252C272.392 33.9747 272.687 33.628 272.964 33.212H273.224C273.294 33.0387 273.363 32.8827 273.432 32.744C273.502 32.5707 273.554 32.38 273.588 32.172H273.172C273.172 32.1027 273.172 32.0507 273.172 32.016C273.207 31.9813 273.224 31.9467 273.224 31.912H273.276V31.652H273.9C273.935 31.5133 273.952 31.392 273.952 31.288C273.952 31.1493 273.952 31.0107 273.952 30.872H273.068L270.52 31.444C270.382 31.4787 270.243 31.5133 270.104 31.548C270 31.5827 269.896 31.6173 269.792 31.652C269.688 31.6867 269.584 31.7213 269.48 31.756C269.376 31.7907 269.29 31.8427 269.22 31.912H269.168C269.099 31.9467 269.03 31.9813 268.96 32.016C268.891 32.0507 268.822 32.1027 268.752 32.172ZM269.012 34.772H267.712C267.851 34.8067 268.059 34.824 268.336 34.824C268.44 34.824 268.544 34.824 268.648 34.824C268.787 34.824 268.908 34.8067 269.012 34.772ZM313.684 18.912H315.66V19.952H315.556V20.992H313.736V21.772H314.204V22.812H313.788V23.852H312.852V24.112H309.576V24.476C309.576 24.5453 309.559 24.6147 309.524 24.684C309.524 24.7533 309.507 24.8227 309.472 24.892H310.668C310.495 25.5507 310.044 25.88 309.316 25.88H302.608C302.469 25.88 302.331 25.88 302.192 25.88C302.088 25.88 301.984 25.8973 301.88 25.932H303.96C303.787 25.9667 303.631 26.0013 303.492 26.036C303.353 26.0707 303.197 26.1227 303.024 26.192H304.74C304.636 26.2267 304.48 26.3133 304.272 26.452H305.26L304.948 26.712H305.208C305 26.92 304.844 27.18 304.74 27.492H303.18C303.111 27.6307 303.076 27.7173 303.076 27.752H302.556C302.556 27.7867 302.539 27.8213 302.504 27.856C302.504 27.8907 302.504 27.9427 302.504 28.012H303.128C303.093 28.0813 303.076 28.168 303.076 28.272C303.076 28.3413 303.059 28.428 303.024 28.532H303.336V29.312H302.608V29.832H303.336V30.612H304.116V31.652H302.972V31.912H302.14V32.172H305.26V32.952H303.7V33.472H304.22V33.992H303.024V35.032H302.348V35.292H301.672V36.072H303.44V36.852H302.504V37.632H303.44V37.892H303.336V38.412H302.192V38.932H303.024V39.972H303.232V40.752H303.024C302.955 41.2373 302.729 41.584 302.348 41.792H301.88C301.707 41.9307 301.464 42 301.152 42H291.272C290.96 42 290.717 41.9307 290.544 41.792H291.012C290.631 41.584 290.405 41.2373 290.336 40.752H290.544V39.972H290.336V38.932H289.504V38.412H290.648V37.892H290.752V37.632H289.816V36.852H290.752V36.072H288.984V35.292H289.66V35.032H290.336V33.992H291.532V33.472H291.012V32.952H292.572V32.172H289.452V31.912H290.284V31.652H291.428V30.612H290.648V29.832H289.92V29.312H290.648V28.532H290.336V28.012H289.712V27.752H290.232V27.492H291.792V26.712H291.532V26.452H290.596V26.192H288.88V25.932H286.8V24.892H285.656V24.112H288.932V23.852H289.868V22.812H290.284V21.772H289.816V20.992H291.636V19.952H291.74V18.912H289.764V18.132H291.428V17.092H289.816V16.832H290.336V16.364C290.336 16.1907 290.371 16 290.44 15.792H290.388C290.631 15.2373 291.064 14.96 291.688 14.96H300.788C301.377 14.96 301.793 15.2373 302.036 15.792H302.14C302.209 16 302.244 16.1907 302.244 16.364V16.832H301.724V17.092H303.336V17.248L303.544 17.092H303.648C303.717 17.0227 303.787 16.9707 303.856 16.936C303.925 16.9013 303.977 16.8667 304.012 16.832H304.116C304.809 16.3813 305.485 16.0347 306.144 15.792H306.248C306.941 15.5147 307.635 15.3067 308.328 15.168C309.021 15.0293 309.749 14.96 310.512 14.96H313.008C313.632 14.96 314.065 15.2373 314.308 15.792H314.204C314.273 16 314.308 16.1907 314.308 16.364V16.832H314.256V17.092H314.152V18.132H313.684V18.912Z" fill="url(#paint0_linear_108_4365)"/>
<path d="M60.5625 73.25C60.0104 73.25 59.5312 73.2188 59.125 73.1562C58.7188 73.0938 58.4323 73.0417 58.2656 73V67.2656C58.401 67.2865 58.5729 67.3177 58.7812 67.3594C58.9896 67.3906 59.2344 67.4062 59.5156 67.4062C60.2031 67.4062 60.7292 67.2188 61.0938 66.8438C61.4583 66.4583 61.7135 65.9427 61.8594 65.2969C62.0156 64.6406 62.1094 63.9115 62.1406 63.1094L62.6719 50.4531H80.0781V73H73.4531V55.7031H68.5469L68.1719 63.625C68.0885 65.5104 67.7865 67.1771 67.2656 68.625C66.7448 70.0729 65.9427 71.2083 64.8594 72.0312C63.7865 72.8438 62.3542 73.25 60.5625 73.25ZM83.1562 73V55.75H89.4062V64.5938H92.4844L88.0312 67.1406L94.7344 55.75H100.969V73H94.7188V63.9062H91.6406L96.0625 61.3438L89.4062 73H83.1562ZM112.172 73.375C110.307 73.375 108.703 73.0156 107.359 72.2969C106.016 71.5781 104.979 70.5469 104.25 69.2031C103.531 67.849 103.172 66.2344 103.172 64.3594V64.3438C103.172 62.4792 103.531 60.8802 104.25 59.5469C104.979 58.2031 106.01 57.1719 107.344 56.4531C108.688 55.7344 110.281 55.375 112.125 55.375C113.802 55.375 115.271 55.6823 116.531 56.2969C117.802 56.901 118.786 57.7552 119.484 58.8594C120.193 59.9635 120.547 61.2604 120.547 62.75V62.8438H114.719L114.703 62.6875C114.63 61.9062 114.375 61.2865 113.938 60.8281C113.5 60.3594 112.938 60.125 112.25 60.125C111.698 60.125 111.229 60.2917 110.844 60.625C110.458 60.9479 110.167 61.4271 109.969 62.0625C109.771 62.6875 109.672 63.4531 109.672 64.3594V64.375C109.672 65.2917 109.766 66.0677 109.953 66.7031C110.151 67.3385 110.443 67.8177 110.828 68.1406C111.214 68.4635 111.688 68.625 112.25 68.625C112.969 68.625 113.536 68.3958 113.953 67.9375C114.38 67.4792 114.63 66.8542 114.703 66.0625L114.719 65.9062H120.547V66C120.547 67.4062 120.214 68.6667 119.547 69.7812C118.891 70.8854 117.938 71.7604 116.688 72.4062C115.438 73.0521 113.932 73.375 112.172 73.375ZM137.5 55.75V60.4062H132.766V73H126.359V60.4062H121.625V55.75H137.5ZM144.766 73.2188C143.609 73.2188 142.589 72.9896 141.703 72.5312C140.828 72.0729 140.141 71.4531 139.641 70.6719C139.151 69.8802 138.906 68.9896 138.906 68V67.9844C138.906 66.8698 139.182 65.9271 139.734 65.1562C140.297 64.3854 141.109 63.7812 142.172 63.3438C143.234 62.8958 144.531 62.6198 146.062 62.5156L153.109 62.0469V65.6094L147.125 66.0312C146.448 66.0729 145.948 66.224 145.625 66.4844C145.312 66.7448 145.156 67.0885 145.156 67.5156V67.5312C145.156 67.9792 145.333 68.3229 145.688 68.5625C146.042 68.8021 146.516 68.9219 147.109 68.9219C147.62 68.9219 148.068 68.8385 148.453 68.6719C148.839 68.4948 149.141 68.2552 149.359 67.9531C149.578 67.651 149.688 67.3125 149.688 66.9375V61.5781C149.688 61.0781 149.526 60.6823 149.203 60.3906C148.88 60.099 148.391 59.9531 147.734 59.9531C147.078 59.9531 146.568 60.0781 146.203 60.3281C145.839 60.5781 145.62 60.8802 145.547 61.2344L145.516 61.3906H139.797L139.812 61.1875C139.906 60.0104 140.286 58.9896 140.953 58.125C141.63 57.25 142.568 56.5729 143.766 56.0938C144.974 55.6146 146.417 55.375 148.094 55.375C149.698 55.375 151.099 55.625 152.297 56.125C153.495 56.6146 154.427 57.3021 155.094 58.1875C155.76 59.0729 156.094 60.099 156.094 61.2656V73H149.688V70.6562H149.562C149.24 71.1979 148.844 71.6615 148.375 72.0469C147.917 72.4323 147.385 72.724 146.781 72.9219C146.177 73.1198 145.505 73.2188 144.766 73.2188ZM158.75 73V55.75H165V64.5938H168.078L163.625 67.1406L170.328 55.75H176.562V73H170.312V63.9062H167.234L171.656 61.3438L165 73H158.75ZM167.672 54.125C166.245 54.125 164.995 53.9115 163.922 53.4844C162.859 53.0469 162.031 52.401 161.438 51.5469C160.854 50.6927 160.562 49.6458 160.562 48.4062V48.125H165.188V48.3438C165.188 48.9479 165.411 49.474 165.859 49.9219C166.318 50.3698 166.922 50.5938 167.672 50.5938C168.422 50.5938 169.021 50.3698 169.469 49.9219C169.927 49.474 170.156 48.9479 170.156 48.3438V48.125H174.781V48.4062C174.781 49.6458 174.484 50.6927 173.891 51.5469C173.307 52.401 172.484 53.0469 171.422 53.4844C170.359 53.9115 169.109 54.125 167.672 54.125ZM193.234 64.6406C193.161 66.3698 192.922 67.875 192.516 69.1562C192.109 70.4271 191.453 71.4115 190.547 72.1094C189.641 72.8073 188.391 73.1562 186.797 73.1562C186.224 73.1562 185.745 73.125 185.359 73.0625C184.974 73.0104 184.703 72.9635 184.547 72.9219V67.7188C184.661 67.7292 184.797 67.7448 184.953 67.7656C185.12 67.7865 185.307 67.7969 185.516 67.7969C186.026 67.7969 186.427 67.6875 186.719 67.4688C187.021 67.2396 187.245 66.849 187.391 66.2969C187.536 65.7344 187.63 64.9479 187.672 63.9375L188.031 55.75H202.797V73H196.391V60.4062H193.422L193.234 64.6406ZM214.016 73.375C212.151 73.375 210.547 73.0156 209.203 72.2969C207.859 71.5781 206.823 70.5469 206.094 69.2031C205.375 67.849 205.016 66.2396 205.016 64.375V64.3594C205.016 62.4844 205.375 60.8802 206.094 59.5469C206.812 58.2031 207.828 57.1719 209.141 56.4531C210.464 55.7344 212.021 55.375 213.812 55.375C215.604 55.375 217.156 55.7292 218.469 56.4375C219.792 57.1458 220.812 58.1458 221.531 59.4375C222.26 60.7292 222.625 62.25 222.625 64V65.8125H208.141V62.1875H219.656L216.703 65.5938V63.125C216.703 62.4271 216.589 61.8281 216.359 61.3281C216.141 60.8281 215.828 60.4479 215.422 60.1875C215.016 59.9167 214.536 59.7812 213.984 59.7812C213.432 59.7812 212.953 59.9167 212.547 60.1875C212.141 60.4479 211.823 60.8281 211.594 61.3281C211.375 61.8281 211.266 62.4271 211.266 63.125V65.625C211.266 66.3229 211.38 66.9219 211.609 67.4219C211.839 67.9219 212.167 68.3073 212.594 68.5781C213.021 68.8385 213.536 68.9688 214.141 68.9688C214.703 68.9688 215.172 68.8802 215.547 68.7031C215.922 68.5156 216.214 68.3021 216.422 68.0625C216.641 67.8229 216.776 67.6198 216.828 67.4531L216.844 67.4062H222.547L222.5 67.6094C222.375 68.1719 222.141 68.7865 221.797 69.4531C221.453 70.1094 220.958 70.7396 220.312 71.3438C219.667 71.9375 218.828 72.4271 217.797 72.8125C216.776 73.1875 215.516 73.375 214.016 73.375ZM236.078 73V66.5938H231.219V73H224.812V55.75H231.219V61.9375H236.078V55.75H242.484V73H236.078ZM260.5 55.75V60.4062H255.766V73H249.359V60.4062H244.625V55.75H260.5ZM266.219 78.5625C265.594 78.5625 264.995 78.5312 264.422 78.4688C263.859 78.4167 263.396 78.3594 263.031 78.2969V73.7344C263.24 73.776 263.526 73.8177 263.891 73.8594C264.266 73.9115 264.708 73.9375 265.219 73.9375C265.719 73.9375 266.109 73.8594 266.391 73.7031C266.672 73.5573 266.849 73.3802 266.922 73.1719L266.984 73L261.188 55.75H268.297L271.172 69.6094L270.547 68.4062H271.438L270.797 69.6094L273.656 55.75H280.422L275.281 72.5938C274.792 74.1875 274.125 75.4167 273.281 76.2812C272.438 77.1458 271.427 77.7396 270.25 78.0625C269.073 78.3958 267.729 78.5625 266.219 78.5625ZM71.6094 105H64.9844V87.7031H56.8906V105H50.2656V82.4531H71.6094V105ZM83.2344 105.375C81.349 105.375 79.7292 105.026 78.375 104.328C77.0208 103.62 75.9792 102.599 75.25 101.266C74.5312 99.9219 74.1719 98.2969 74.1719 96.3906V96.3594C74.1719 94.4844 74.5417 92.875 75.2812 91.5312C76.0312 90.1875 77.0833 89.1615 78.4375 88.4531C79.7917 87.7344 81.3906 87.375 83.2344 87.375C85.0885 87.375 86.6927 87.7292 88.0469 88.4375C89.401 89.1458 90.4479 90.1719 91.1875 91.5156C91.9375 92.849 92.3125 94.4635 92.3125 96.3594V96.3906C92.3125 98.3073 91.9479 99.9375 91.2188 101.281C90.4896 102.615 89.4479 103.63 88.0938 104.328C86.7396 105.026 85.1198 105.375 83.2344 105.375ZM83.25 100.625C83.7812 100.625 84.2396 100.464 84.625 100.141C85.0104 99.8073 85.3021 99.3281 85.5 98.7031C85.7083 98.0677 85.8125 97.2969 85.8125 96.3906V96.3594C85.8125 95.4635 85.7031 94.7031 85.4844 94.0781C85.276 93.4427 84.9792 92.9583 84.5938 92.625C84.2083 92.2917 83.7552 92.125 83.2344 92.125C82.7135 92.125 82.2604 92.2917 81.875 92.625C81.4896 92.9583 81.1927 93.4427 80.9844 94.0781C80.776 94.7031 80.6719 95.4635 80.6719 96.3594V96.3906C80.6719 97.2969 80.7708 98.0677 80.9688 98.7031C81.1771 99.3281 81.474 99.8073 81.8594 100.141C82.2448 100.464 82.7083 100.625 83.25 100.625ZM101.406 98.4531H100.938V105H94.5312V87.75H100.938V94.0469H101.406L105.297 87.75H112.359L106.547 96V95.125L112.922 105H105.406L101.406 98.4531ZM117.969 110.562C117.344 110.562 116.745 110.531 116.172 110.469C115.609 110.417 115.146 110.359 114.781 110.297V105.734C114.99 105.776 115.276 105.818 115.641 105.859C116.016 105.911 116.458 105.938 116.969 105.938C117.469 105.938 117.859 105.859 118.141 105.703C118.422 105.557 118.599 105.38 118.672 105.172L118.734 105L112.938 87.75H120.047L122.922 101.609L122.297 100.406H123.188L122.547 101.609L125.406 87.75H132.172L127.031 104.594C126.542 106.188 125.875 107.417 125.031 108.281C124.188 109.146 123.177 109.74 122 110.062C120.823 110.396 119.479 110.562 117.969 110.562ZM133.469 105V87.75H150.984V105H144.578V92.375H139.875V105H133.469ZM158.859 105.219C157.703 105.219 156.682 104.99 155.797 104.531C154.922 104.073 154.234 103.453 153.734 102.672C153.245 101.88 153 100.99 153 100V99.9844C153 98.8698 153.276 97.9271 153.828 97.1562C154.391 96.3854 155.203 95.7812 156.266 95.3438C157.328 94.8958 158.625 94.6198 160.156 94.5156L167.203 94.0469V97.6094L161.219 98.0312C160.542 98.0729 160.042 98.224 159.719 98.4844C159.406 98.7448 159.25 99.0885 159.25 99.5156V99.5312C159.25 99.9792 159.427 100.323 159.781 100.562C160.135 100.802 160.609 100.922 161.203 100.922C161.714 100.922 162.161 100.839 162.547 100.672C162.932 100.495 163.234 100.255 163.453 99.9531C163.672 99.651 163.781 99.3125 163.781 98.9375V93.5781C163.781 93.0781 163.62 92.6823 163.297 92.3906C162.974 92.099 162.484 91.9531 161.828 91.9531C161.172 91.9531 160.661 92.0781 160.297 92.3281C159.932 92.5781 159.714 92.8802 159.641 93.2344L159.609 93.3906H153.891L153.906 93.1875C154 92.0104 154.38 90.9896 155.047 90.125C155.724 89.25 156.661 88.5729 157.859 88.0938C159.068 87.6146 160.51 87.375 162.188 87.375C163.792 87.375 165.193 87.625 166.391 88.125C167.589 88.6146 168.521 89.3021 169.188 90.1875C169.854 91.0729 170.188 92.099 170.188 93.2656V105H163.781V102.656H163.656C163.333 103.198 162.938 103.661 162.469 104.047C162.01 104.432 161.479 104.724 160.875 104.922C160.271 105.12 159.599 105.219 158.859 105.219ZM172.844 105V87.75H179.094V96.5938H182.172L177.719 99.1406L184.422 87.75H190.656V105H184.406V95.9062H181.328L185.75 93.3438L179.094 105H172.844ZM181.766 86.125C180.339 86.125 179.089 85.9115 178.016 85.4844C176.953 85.0469 176.125 84.401 175.531 83.5469C174.948 82.6927 174.656 81.6458 174.656 80.4062V80.125H179.281V80.3438C179.281 80.9479 179.505 81.474 179.953 81.9219C180.411 82.3698 181.016 82.5938 181.766 82.5938C182.516 82.5938 183.115 82.3698 183.562 81.9219C184.021 81.474 184.25 80.9479 184.25 80.3438V80.125H188.875V80.4062C188.875 81.6458 188.578 82.6927 187.984 83.5469C187.401 84.401 186.578 85.0469 185.516 85.4844C184.453 85.9115 183.203 86.125 181.766 86.125ZM199.469 105V87.75H205.875V100.25H209.219V87.75H215.625V100.25H218.969V87.75H225.375V105H199.469ZM233.969 105H228.094V87.75H236.625L239.578 96.9688H239.688L242.609 87.75H251.141V105H245.266V94.125H245.141L241.734 103.609H237.5L234.078 94.125H233.969V105ZM262.422 105.375C260.536 105.375 258.917 105.026 257.562 104.328C256.208 103.62 255.167 102.599 254.438 101.266C253.719 99.9219 253.359 98.2969 253.359 96.3906V96.3594C253.359 94.4844 253.729 92.875 254.469 91.5312C255.219 90.1875 256.271 89.1615 257.625 88.4531C258.979 87.7344 260.578 87.375 262.422 87.375C264.276 87.375 265.88 87.7292 267.234 88.4375C268.589 89.1458 269.635 90.1719 270.375 91.5156C271.125 92.849 271.5 94.4635 271.5 96.3594V96.3906C271.5 98.3073 271.135 99.9375 270.406 101.281C269.677 102.615 268.635 103.63 267.281 104.328C265.927 105.026 264.307 105.375 262.422 105.375ZM262.438 100.625C262.969 100.625 263.427 100.464 263.812 100.141C264.198 99.8073 264.49 99.3281 264.688 98.7031C264.896 98.0677 265 97.2969 265 96.3906V96.3594C265 95.4635 264.891 94.7031 264.672 94.0781C264.464 93.4427 264.167 92.9583 263.781 92.625C263.396 92.2917 262.943 92.125 262.422 92.125C261.901 92.125 261.448 92.2917 261.062 92.625C260.677 92.9583 260.38 93.4427 260.172 94.0781C259.964 94.7031 259.859 95.4635 259.859 96.3594V96.3906C259.859 97.2969 259.958 98.0677 260.156 98.7031C260.365 99.3281 260.661 99.8073 261.047 100.141C261.432 100.464 261.896 100.625 262.438 100.625ZM288.688 87.75V92.4062H283.953V105H277.547V92.4062H272.812V87.75H288.688Z" fill="#737373"/>
<defs>
<linearGradient id="paint0_linear_108_4365" x1="8" y1="24" x2="315" y2="24" gradientUnits="userSpaceOnUse">
<stop stop-color="#666666"/>
<stop offset="1" stop-color="#171717"/>
</linearGradient>
</defs>
</svg>
